# xmcd
#
# Track frame offsets: 
#        150
#        17896
#        44675
#        68313
#        83511
#        97128
#        119866
#        140503
#        157107
#        174248
#
# Disc length: 2578 seconds
#
# Revision: 0
# Processed by: cddbd v1.5.2PL0 Copyright (c) Steve Scherf et al.
# Submitted via: ExactAudioCopy v1.0b4
#
DISCID=860a100a
DTITLE=Memphis Slim with Wild Bill Davis - Blues And Women (LP)
DYEAR=1978
DGENRE=Blues
TTITLE0=SBM Boogie
TTITLE1=Blues For Morgantini
TTITLE2=Life Is Like That
TTITLE3=Misery
TTITLE4=Steppin' Out
TTITLE5=Darling I Miss You So
TTITLE6=Lend Me Your Love
TTITLE7=Blues And Women
TTITLE8=Are You Alone Tonight
TTITLE9=The Comeback
EXTD=
EXTT0=
EXTT1=
EXTT2=
EXTT3=
EXTT4=
EXTT5=
EXTT6=
EXTT7=
EXTT8=
EXTT9=
PLAYORDER=
